<?xml version="1.0" encoding="UTF-8"?> <!-- Generator: Adobe Illustrator 24.0.0, SVG Export Plug-In . SVG Version: 6.00 Build 0) --> <svg xmlns="http://www.w3.org/2000/svg" xmlns:xlink="http://www.w3.org/1999/xlink" version="1.1" id="Livello_1" x="0px" y="0px" viewBox="0 0 1140.9 112" style="enable-background:new 0 0 1140.9 112;" xml:space="preserve"> <style type="text/css"> .st0{fill-rule:evenodd;clip-rule:evenodd;fill:#AD8400;stroke:#AD8400;stroke-width:2;stroke-miterlimit:10;} .st1{fill:none;stroke:#AD8400;stroke-width:2;stroke-miterlimit:10;} .st2{fill-rule:evenodd;clip-rule:evenodd;fill:none;stroke:#AD8400;stroke-width:4;stroke-miterlimit:10;} </style> <polygon class="st0" points="503.4,56.2 0,56.2 0,56.2 "></polygon> <polygon class="st1" points="1140.9,56.2 605.9,56.2 605.9,56.2 "></polygon> <path class="st2" d="M553.9,2.4c-7.1,0.1-14.2,0.9-21.2,2.6c-2.5,0.6-5,1.3-7.4,2.2c-3.9,1.4-6.5,3.2-8.5,6.8c-1.1,2-1.8,4.7-2.2,7 c-0.4,2.2-0.6,4.5-0.8,6.7c-0.7,8-0.7,15.8,0.6,23.7c1.2,7.5,3.3,14.6,6.1,21.7c4.1,10.3,14.3,25.6,23.4,32.4c3,2.3,6.3,3.8,9.9,3.8 c3,0,6-1.2,8.9-3.2c12.6-8.5,24.2-31.8,27.5-42.2c4-12.6,4.7-25.4,3.2-38.5c-0.5-4.5-1.6-11.4-5.2-14.5c-2.6-2.2-6.1-3.2-9.2-4.4 C575,5,571,4,566.9,3.3C562.6,2.6,558.2,2.3,553.9,2.4z"></path> </svg> 