<?xml version="1.0" encoding="UTF-8"?> <!-- Generator: Adobe Illustrator 24.0.0, SVG Export Plug-In . SVG Version: 6.00 Build 0) --> <svg xmlns="http://www.w3.org/2000/svg" xmlns:xlink="http://www.w3.org/1999/xlink" version="1.1" id="Livello_1" x="0px" y="0px" viewBox="0 0 286.4 378.5" style="enable-background:new 0 0 286.4 378.5;" xml:space="preserve"> <style type="text/css"> .st0{opacity:0.36;fill-rule:evenodd;clip-rule:evenodd;fill:#AE8F1D;} </style> <path class="st0" d="M144.2,20.6c37.2,0,62.2,6,81.4,13.2c10.3,3.8,20.8,7.2,26.4,11.9c5.2,4.4,9.1,18.4,11.4,37.9 c5.1,43.7,2.8,85.6-10.5,127.9c-12.1,38.5-31.8,74.8-52.6,99.9c-12,14.5-37.1,46.4-56.9,46.5c-12.6,0.1-26.4-11-38.4-23.9 c-10.4-11.1-19.5-23.4-25.7-31c-12.5-15.4-24.9-36.3-34.4-60.1c-11.5-29-17-50.9-20.6-72.5c-3.8-23-5.1-45.7-2.1-78.8 c1.8-19.4,4.6-34,8.2-40.4c4.3-7.7,8.9-11.2,19-14.8c6.6-2.3,14.6-4.8,24.5-7.2C91.2,25.1,114.2,21.4,144.2,20.6 M144,0 c-25.3,0.3-50.4,3.3-75,9.3c-8.9,2.2-17.7,4.7-26.4,7.7c-13.8,4.8-23,11.2-30.2,24.2c-4,7.2-6.3,16.7-7.7,24.8 c-1.4,7.9-2.3,15.8-3,23.7c-2.6,28.3-2.3,55.9,2.3,84c4.3,26.5,11.9,51.9,21.8,76.8c14.4,36.3,50.5,90.5,82.8,114.7 c10.7,8,22.4,13.4,35,13.3c10.5-0.1,21.2-4.3,31.7-11.4c44.6-30.3,85.8-112.7,97.3-149.4c14-44.7,16.7-90,11.3-136.4 c-1.9-16-5.5-40.2-18.5-51.2c-9.1-7.7-21.5-11.4-32.5-15.5C219,9.4,204.7,5.6,190.1,3.2C174.8,0.7,159.4-0.2,144,0z"></path> </svg> 